<?xml version="1.0" encoding="UTF-8"?>
<svg width="100" height="140" viewBox="0 0 100 140" xmlns="http://www.w3.org/2000/svg">
    <!-- Card background -->
    <rect x="0" y="0" width="100" height="140" fill="#ffffff" stroke="#000000" stroke-width="2"/>

    <!-- Spade symbol -->
    <path d="M50,30 C50,30 20,60 20,80 C20,95 35,100 50,90 C65,100 80,95 80,80 C80,60 50,30 50,30 L50,30 Z" fill="#000000"/>
    <path d="M45,80 L55,80 L55,100 L45,100 Z" fill="#000000"/>

    <!-- Corner decorations -->
    <path d="M25,15 C25,15 15,25 15,30 C15,35 20,37 25,34 C30,37 35,35 35,30 C35,25 25,15 25,15 Z" fill="#000000"/>
    <path d="M75,125 C75,125 65,115 65,110 C65,105 70,103 75,106 C80,103 85,105 85,110 C85,115 75,125 75,125 Z" fill="#000000"/>
</svg>